<svg xmlns="http://www.w3.org/2000/svg" viewBox="0 0 634 498" width="1000" height="785">
	<style>
		tspan { white-space:pre }
		.shp0 { fill: #ffffff } 
		.shp1 { fill: #000000 } 
		.shp2 { fill: #e41319 } 
		.shp3 { fill: #f48c6c } 
		.shp4 { fill: #3dd0f2 } 
		.shp5 { fill: #808a93 } 
		.shp6 { fill: #183651 } 
	</style>
	<path id="Layer" class="shp0" d="M220.25 159.74C220.45 157.97 221.1 155.8 221.85 153.43C221.5 155.59 220.97 157.69 220.25 159.74Z" />
	<path id="Layer" class="shp0" d="M186.08 111.35C200.4 111.39 213.96 119.94 219.67 134.03C217.15 132.56 214.34 132.02 211.44 132.05C204.16 124.19 194.77 117.79 186.08 111.35Z" />
	<path id="Layer" class="shp0" d="M172.34 114C176.85 112.17 181.5 111.34 186.08 111.35C194.77 117.79 204.16 124.19 211.44 132.05C202.22 132.12 192.09 137.87 187.74 137.87C176.05 137.28 164.25 135.83 152.47 133.66C156.08 125.03 162.99 117.79 172.34 114Z" />
	<path id="Layer" class="shp0" d="M187.74 137.87C192.09 137.87 202.22 132.11 211.44 132.05C216.19 137.18 220.02 142.93 222.2 149.73C222.12 150.97 222.05 152.21 221.85 153.43C221.1 155.8 220.45 157.97 220.25 159.74C216.91 169.23 209.71 177.31 199.65 181.39C181.05 188.93 159.84 179.95 152.3 161.35C148.55 152.09 148.89 142.2 152.47 133.66C164.25 135.83 176.05 137.28 187.74 137.87Z" />
	<path id="Layer" class="shp0" d="M219.67 134.03C219.67 134.04 219.67 134.04 219.67 134.04C221.76 139.19 222.5 144.53 222.2 149.73C220.02 142.93 216.18 137.18 211.44 132.05C214.34 132.02 217.16 132.56 219.67 134.03Z" />
	<path id="Layer" class="shp0" d="M132.07 12.48C143.96 7.67 157.51 13.4 162.33 25.3C167.15 37.18 161.41 50.73 149.53 55.55C148.05 56.15 146.53 56.59 145.02 56.87C139.32 43.02 134.78 28 130.89 13.03C131.28 12.85 131.66 12.65 132.07 12.48Z" />
	<path id="Layer" class="shp0" d="M130.89 13.04C134.78 28 139.32 43.02 145.03 56.87C134.39 58.85 123.48 53.16 119.26 42.75C114.6 31.26 119.81 18.25 130.89 13.04Z" />
	<path id="Layer" class="shp0" d="M237.65 357.69C243.36 360.96 249.2 362.79 255.3 364.65C248.9 363.94 242.81 361.51 237.65 357.69Z" />
	<path id="Layer" class="shp0" d="M292.96 338.46C291.2 345.54 283.72 351.67 279.23 358.9C277.28 360.18 275.18 361.3 272.94 362.21C267.14 364.55 261.1 365.3 255.3 364.65C249.2 362.79 243.36 360.96 237.66 357.69C232.45 353.85 228.19 348.6 225.59 342.17C220.92 330.65 222.6 318.14 228.95 308.5C230.51 307.15 232.14 306.13 233.78 305.57C242.68 300.02 252.32 296.33 261.07 292.24C271.68 292.78 281.67 297.99 288.2 306.6C292.1 316.81 295.21 327.25 292.96 338.46Z" />
	<path id="Layer" class="shp0" d="M279.23 358.9C283.72 351.67 291.2 345.54 292.96 338.46C295.21 327.25 292.1 316.81 288.2 306.6C290.09 309.09 291.73 311.83 292.96 314.87C299.6 331.23 293.45 349.58 279.23 358.9Z" />
	<path id="Layer" class="shp0" d="M245.63 294.83C250.69 292.78 255.95 291.99 261.07 292.25C252.32 296.33 242.68 300.02 233.78 305.57C232.14 306.13 230.51 307.15 228.95 308.5C232.87 302.56 238.54 297.7 245.63 294.83Z" />
	<path id="Layer" class="shp1" d="M294.42 411.1C293.84 411.02 293.26 410.96 292.69 410.88C292.28 409.18 291.89 407.47 291.5 405.78C291.98 406.38 292.44 407 292.96 407.52C293.6 408.77 294.07 409.97 294.42 411.1Z" />
	<path id="Layer" class="shp1" d="M160.92 86.69C161.09 86.59 161.25 86.47 161.41 86.36C213.58 52.64 274.15 34.8 336.53 34.8C398.95 34.8 459.51 52.64 511.69 86.36C562.49 119.21 602.98 165.41 628.77 220.01C630.08 222.74 630.08 225.94 628.77 228.69C602.98 283.26 562.49 329.47 511.69 362.32C459.52 396.03 398.95 413.88 336.53 413.88C322.37 413.88 308.31 412.91 294.42 411.09C294.07 409.97 293.6 408.77 292.97 407.52C292.44 407 291.98 406.37 291.5 405.78C290.17 400.08 288.8 394.51 286.91 389.44C303.22 392.13 319.8 393.55 336.54 393.55C395.02 393.55 451.78 376.85 500.66 345.24C546.91 315.34 584.06 273.61 608.3 224.34C584.06 175.07 546.91 133.34 500.66 103.44C451.78 71.84 395.02 55.13 336.53 55.13C278.91 55.13 222.96 71.4 174.56 102.13C169.54 97.7 165.02 92.5 160.92 86.69Z" />
	<path id="Layer" class="shp1" d="M223.92 137.87C221.79 135.02 219.18 133.46 216.36 132.68C244.02 96.5 287.58 73.1 336.53 73.1C419.95 73.1 487.79 140.95 487.79 224.34C487.79 307.73 419.95 375.58 336.53 375.58C315.4 375.58 295.28 371.18 277 363.31C279.43 356.98 284.99 351.66 288.95 346.23C303.71 352.02 319.74 355.24 336.53 355.24C408.73 355.24 467.46 296.52 467.46 224.34C467.46 152.15 408.73 93.42 336.53 93.42C288.63 93.42 246.71 119.34 223.91 157.86C223.65 155.48 223.22 153.2 222.61 151.04C223.99 146.56 225.19 141.72 223.92 137.87Z" />
	<path id="Layer" class="shp1" d="M220.91 163.07C219.2 161.02 221.01 156.28 222.61 151.05C223.22 153.2 223.65 155.48 223.91 157.86C222.88 159.59 221.85 161.3 220.91 163.07Z" />
	<path id="Layer" class="shp2" d="M336.53 93.42C408.73 93.42 467.46 152.15 467.46 224.34C467.46 296.52 408.73 355.25 336.53 355.25C319.74 355.25 303.71 352.02 288.95 346.23C290.79 343.7 292.3 341.15 292.96 338.46C294.08 332.9 293.86 327.54 292.89 322.29C306.23 328.27 321 331.62 336.53 331.62C395.71 331.62 443.83 283.49 443.83 224.34C443.83 165.19 395.71 117.05 336.53 117.05C296.84 117.05 262.14 138.74 243.6 170.88C238.77 167.74 232.49 165.43 224.13 164.21C224.2 162 224.12 159.89 223.91 157.86C246.71 119.34 288.63 93.42 336.53 93.42Z" />
	<path id="Layer" class="shp3" d="M224.13 164.21C224.05 164.2 223.99 164.19 223.92 164.17C222.4 164.17 221.48 163.75 220.91 163.07C221.85 161.3 222.88 159.59 223.91 157.86C224.12 159.89 224.2 162 224.13 164.21Z" />
	<path id="Layer" class="shp4" d="M258.26 191.57L256.02 191.57C256.4 190.63 256.85 189.74 257.26 188.82C257.61 189.72 257.94 190.63 258.26 191.57Z" />
	<path id="Layer" class="shp4" d="M258.26 191.57C257.94 190.63 257.61 189.72 257.26 188.82C257.58 188.11 257.96 187.43 258.29 186.73C258.63 188.32 258.94 189.93 259.24 191.57L258.26 191.57Z" />
	<path id="Layer" class="shp4" d="M274.22 284.88C276.04 283.57 277.75 282.15 279.33 280.6C280.08 284.6 281.3 288.58 282.74 292.54C279.73 290.17 276.88 287.62 274.22 284.88Z" />
	<path id="Layer" class="shp4" d="M289.68 246.39C283.1 246.39 276.52 239.81 276.52 239.81C275.68 238.73 274.9 237.63 274.16 236.53C277.98 240.74 282.98 244.15 289.68 246.39Z" />
	<path id="Layer" class="shp5" d="M336.53 137.38C378.37 137.38 413.37 167.07 421.64 206.47L387.37 206.47C384.67 206.47 382.1 207.53 380.19 209.44L351.38 238.25C348.25 237 344.85 236.3 341.28 236.3C326.34 236.3 314.18 248.45 314.18 263.4C314.18 278.34 326.35 290.51 341.28 290.51C356.24 290.51 368.39 278.34 368.39 263.4C368.39 259.46 367.54 255.73 366.02 252.35L391.58 226.8L423.42 226.8C422.12 273.61 383.68 311.28 336.53 311.28C316.23 311.28 297.55 304.26 282.74 292.54C281.3 288.57 280.08 284.6 279.33 280.6C286.65 273.42 290.98 263.22 289.68 246.39C282.98 244.15 277.98 240.74 274.16 236.53C268.87 228.63 266.01 220.16 263.78 211.89L289.74 211.89C293.78 221.8 303.51 228.82 314.86 228.82C329.81 228.82 341.97 216.67 341.97 201.72C341.97 186.77 329.81 174.6 314.86 174.6C303.5 174.6 293.77 181.62 289.74 191.57L259.24 191.57C258.94 189.93 258.63 188.32 258.29 186.73C272.36 157.59 302.09 137.38 336.53 137.38Z" />
	<path id="Layer" class="shp1" d="M258.26 191.57L259.24 191.57C259.72 194.21 260.16 196.92 260.62 199.64C259.89 196.87 259.13 194.16 258.26 191.57Z" />
	<path id="Layer" fill-rule="evenodd" class="shp1" d="M314.86 174.6C329.81 174.6 341.97 186.77 341.97 201.72C341.97 216.67 329.81 228.82 314.86 228.82C303.51 228.82 293.78 221.8 289.74 211.89L263.78 211.89C262.65 207.71 261.66 203.61 260.62 199.64C260.16 196.92 259.72 194.21 259.24 191.57L289.74 191.57C293.76 181.62 303.5 174.6 314.86 174.6ZM314.85 208.49C318.6 208.49 321.63 205.45 321.63 201.72C321.63 197.99 318.6 194.94 314.85 194.94C311.12 194.94 308.08 197.99 308.08 201.72C308.08 205.45 311.12 208.49 314.85 208.49Z" />
	<path id="Layer" fill-rule="evenodd" class="shp1" d="M336.53 117.05C395.71 117.05 443.83 165.19 443.83 224.34C443.83 283.49 395.71 331.62 336.53 331.62C321 331.62 306.23 328.27 292.89 322.29C291.02 312.06 286.27 302.3 282.74 292.54C297.55 304.26 316.23 311.28 336.53 311.28C383.68 311.28 422.13 273.61 423.42 226.8L391.58 226.8L366.02 252.35C367.54 255.73 368.39 259.46 368.39 263.4C368.39 278.34 356.24 290.51 341.28 290.51C326.35 290.51 314.18 278.34 314.18 263.4C314.18 248.45 326.35 236.3 341.28 236.3C344.86 236.3 348.25 237 351.38 238.25L380.19 209.44C382.11 207.53 384.68 206.47 387.37 206.47L421.64 206.47C413.37 167.07 378.37 137.38 336.53 137.38C302.09 137.38 272.36 157.59 258.29 186.73C257.85 184.63 257.36 182.59 256.79 180.61C255.27 177.56 250.87 174.5 245.3 172.11C244.75 171.69 244.2 171.27 243.6 170.88C262.15 138.75 296.84 117.05 336.53 117.05ZM341.28 256.62C337.57 256.62 334.51 259.67 334.51 263.41C334.51 267.13 337.56 270.18 341.28 270.18C345.02 270.18 348.06 267.13 348.06 263.41C348.06 259.67 345.02 256.62 341.28 256.62Z" />
	<path id="Layer" class="shp1" d="M256.79 180.61C257.36 182.59 257.84 184.63 258.29 186.73C257.96 187.43 257.58 188.11 257.26 188.82C254.73 182.25 251.19 176.5 245.3 172.11C250.87 174.5 255.27 177.56 256.79 180.61Z" />
	<path id="Layer" class="shp6" d="M328.68 144.99L328.74 144.84C328.98 144.99 329.22 145.14 329.47 145.29L328.68 144.99Z" />
	<path id="Layer" class="shp6" d="M343.41 150.72C343.48 150.76 343.56 150.82 343.63 150.86C338.08 150.36 333.56 147.88 329.47 145.3L343.41 150.72Z" />
	<g id="Layer">
		<path id="Layer" class="shp1" d="M294.64 418.55C293.47 414.32 292.48 410.02 291.49 405.78C291.98 406.37 292.44 407 292.96 407.52C295.2 411.98 295.57 415.58 294.64 418.55Z" />
		<g id="Layer">
			<path id="Layer" class="shp1" d="M223.92 167.46C224.02 166.35 224.09 165.28 224.13 164.21C233.55 165.58 240.32 168.35 245.35 172.13C238.94 169.36 230.96 167.46 223.92 167.46Z" />
			<path id="Layer" class="shp1" d="M260.59 199.46C263.73 211.38 266.18 224.63 274.21 236.58C265.37 226.9 262.84 212.97 260.59 199.46Z" />
			<path id="Layer" class="shp1" d="M256.79 180.61C258.46 186.44 259.49 192.9 260.59 199.46C257.71 188.55 254.23 178.77 245.35 172.13C250.9 174.52 255.27 177.57 256.79 180.61Z" />
			<path id="Layer" class="shp1" d="M289.68 246.39C283.1 246.39 276.52 239.81 276.52 239.81C275.7 238.75 274.94 237.67 274.21 236.58C278.03 240.77 283.01 244.17 289.68 246.39Z" />
			<g id="Layer">
				<path id="Layer" class="shp1" d="M224.13 164.22C224.05 164.2 223.99 164.19 223.92 164.17C217.88 164.17 220.44 158.03 222.6 151.01C223.74 155.02 224.3 159.4 224.13 164.22Z" />
				<g id="Layer">
					<path id="Layer" class="shp1" d="M291.49 405.77C285.91 398.83 282.84 387.27 279.81 381.21C277.98 378.46 276.86 375.9 276.28 373.48C285.39 380.8 288.51 392.95 291.49 405.77Z" />
					<path id="Layer" class="shp1" d="M223.92 137.87C225.19 141.7 223.98 146.54 222.6 151.01C220.52 143.65 216.49 137.49 211.43 132.04C216.13 132.01 220.58 133.43 223.92 137.87Z" />
					<g id="Layer">
						<path id="Layer" class="shp1" d="M279.33 280.61C277.27 269.65 278.81 258.46 289.68 246.39C290.98 263.22 286.65 273.42 279.33 280.61Z" />
						<g id="Layer">
							<path id="Layer" fill-rule="evenodd" class="shp1" d="M292.97 338.46C290.14 349.78 272.73 358.67 276.28 373.48C275.33 372.72 274.32 372 273.24 371.35C253.51 361.49 237.06 364.77 220.62 341.75C214.05 328.6 223.92 308.87 233.78 305.58C249.72 295.61 268.07 291.67 279.33 280.61C282.87 299.48 297.13 317.66 292.97 338.46ZM285.84 317.76C279.72 302.67 262.83 296.15 248.52 301.96C234.18 307.77 226.6 324.2 232.72 339.29C238.83 354.37 254.96 361.19 270.04 355.08C285.13 348.97 291.95 332.84 285.84 317.76Z" />
							<g id="Layer">
								<path id="Layer" fill-rule="evenodd" class="shp1" d="M148.7 353.91C164.46 347.52 182.66 355.16 189.08 371C195.77 387.51 188.5 404.69 172 411.38C156.24 417.77 138.03 410.13 131.61 394.29C125.27 378.43 132.94 360.29 148.7 353.91ZM166.16 396.97C174.04 393.77 177.88 384.71 174.69 376.83C171.5 368.96 163.09 364.85 154.55 368.31C146.67 371.51 142.82 380.57 146.02 388.45C149.21 396.33 158.28 400.16 166.16 396.97Z" />
								<path id="Layer" fill-rule="evenodd" class="shp1" d="M189.65 436.93C195.95 434.38 202.66 434.1 208.86 435.61L206.12 434.45L212.14 420.22L226.38 426.25L220.38 440.55L217.54 439.34C222.98 442.65 227.38 447.67 229.96 454.05C236.35 469.81 228.69 488.03 212.87 494.43C197.12 500.83 178.9 493.18 172.49 477.35C166.15 461.48 173.83 443.35 189.65 436.93ZM186.97 471.48C190.09 479.39 199.16 483.23 207.1 480C214.98 476.81 218.82 467.74 215.63 459.86C212.44 451.99 203.37 448.15 195.5 451.34C187.62 454.54 183.78 463.6 186.97 471.48Z" />
								<path id="Layer" class="shp1" d="M62.47 84.11C59.28 76.23 50.96 72.09 42.33 75.58C37.69 77.46 34.51 81.39 33.29 85.91C28.79 83.06 24.38 80.13 20.05 77.1C23.21 70.11 28.92 64.25 36.57 61.15C52.32 54.77 70.53 62.41 76.95 78.24C79.72 85.07 79.95 92.31 78.05 98.85L79.97 94.31L94.16 100.44L88.22 114.47C83.47 112.51 78.76 110.41 74.09 108.23L75.38 105.17C74.83 106.14 74.15 107.04 73.49 107.95C68.65 105.67 63.85 103.29 59.1 100.8C63.31 96.54 64.85 89.99 62.47 84.11Z" />
								<path id="Layer" class="shp1" d="M33.29 85.91C32.42 89.06 32.49 92.48 33.81 95.73C37 103.6 46.07 107.44 53.95 104.24C55.94 103.43 57.67 102.25 59.09 100.8C63.84 103.29 68.65 105.67 73.49 107.95C70.22 112.52 65.68 116.26 59.86 118.63C44.11 125.01 25.89 117.36 19.47 101.53C16.17 93.39 16.65 84.59 20.05 77.1C24.38 80.13 28.79 83.06 33.29 85.91Z" />
								<path id="Layer" class="shp1" d="M211.43 132.04C210.96 132.05 210.49 132.05 210.02 132.08C202.57 120.52 187.91 116 175.23 121.14C168.55 123.84 163.36 128.87 160.32 134.98C150.71 133.49 141.09 131.46 131.51 128.97L135.87 118.65L147.99 123.79C151.56 118.15 155.71 113.94 161.89 110.65L144.33 65.17C130.64 66.52 116.99 59.57 111.76 46.66C105.38 30.91 113.01 12.7 128.85 6.28C128.95 6.24 129.05 6.22 129.15 6.18C130.34 11.02 131.62 15.89 132.96 20.75C126.5 24.58 123.56 32.67 126.47 39.83C129.06 46.23 135.52 49.88 142.08 49.35C150.16 71.05 160.75 90.43 175.63 103.05L176.6 105.55C177.15 105.45 177.71 105.39 178.27 105.3C188.75 113.96 201.9 121.75 211.43 132.04Z" />
								<path id="Layer" fill-rule="evenodd" class="shp1" d="M294.64 418.55C295.57 415.58 295.2 411.98 292.96 407.52C292.44 407 291.98 406.37 291.49 405.77C288.51 392.95 285.39 380.8 276.28 373.48C272.73 358.67 290.14 349.77 292.96 338.46C297.13 317.66 282.87 299.48 279.33 280.61C286.65 273.42 290.98 263.22 289.68 246.39C283.01 244.17 278.03 240.77 274.21 236.58C266.18 224.63 263.73 211.38 260.59 199.46C259.49 192.9 258.46 186.44 256.79 180.61C255.27 177.57 250.9 174.52 245.35 172.13C240.32 168.35 233.54 165.58 224.13 164.21C224.29 159.4 223.74 155.02 222.6 151.01C223.98 146.54 225.19 141.7 223.92 137.87C220.58 133.43 216.13 132.01 211.43 132.04C201.9 121.75 188.75 113.96 178.27 105.3C197.89 102.22 217.99 112.84 225.88 132.31C229.38 140.94 229.72 149.99 227.98 158.2L261.3 172.3C267.69 161.32 277.43 152.4 290.34 147.17C303.24 141.94 316.46 141.56 328.68 144.99L329.47 145.3C333.56 147.88 338.08 150.36 343.63 150.86C354.5 157.24 363.35 166.94 368.54 179.76C373.77 192.66 374.15 205.88 370.72 218.1L372.1 218.68C370.13 223.75 368.15 228.42 366.19 234.02L364.36 233.25C357.98 244.22 348.23 253.16 335.34 258.38C322.43 263.62 309.22 263.99 296.99 260.55L283.03 292.07C289.92 296.79 296.04 303.49 299.54 312.12C307.69 332.22 300.04 354.54 282.15 365.99L300.45 411.16C314.52 408.78 328.47 416.49 334.01 430.14C340.39 445.9 332.75 464.11 316.91 470.52C301.16 476.91 282.95 469.27 276.54 453.44C273.41 445.71 273.69 437.49 276.71 430.31C285.19 428.05 292.71 424.69 294.64 418.55ZM296.26 423.96C295.66 422.18 295.14 420.37 294.64 418.55C295.14 420.37 295.66 422.18 296.26 423.96ZM329.62 242.36C351.83 233.36 363.24 207.85 353.94 184.9C344.93 162.68 318.69 151.57 296.48 160.58C274.26 169.58 262.84 195.07 272.16 218.04C281.15 240.24 306.66 251.66 329.62 242.36ZM291.57 447.43C294.76 455.31 303.84 459.15 311.71 455.96C319.59 452.76 323.42 443.69 320.24 435.81C317.04 427.93 307.97 424.1 300.09 427.29C292.22 430.48 288.38 439.55 291.57 447.43Z" />
								<path id="Layer" fill-rule="evenodd" class="shp1" d="M61.43 165.6C74.33 160.36 89.58 165.02 97.39 176.09L142.26 157.04C140.69 151.03 141.2 144.1 142.01 137.92L129.89 132.79L131.51 128.97C141.09 131.46 150.71 133.49 160.32 134.98C156.83 141.98 156.16 150.41 159.43 158.46C165.54 173.54 181.68 180.37 196.76 174.26C211.08 168.45 218.66 152.01 212.55 136.93C211.84 135.19 210.98 133.59 210.02 132.08C210.49 132.05 210.96 132.05 211.43 132.04C216.48 137.49 220.51 143.65 222.6 151.01C220.44 158.03 217.88 164.17 223.91 164.17C223.99 164.19 224.05 164.2 224.13 164.21C224.09 165.28 224.02 166.35 223.91 167.46C230.96 167.46 238.94 169.36 245.35 172.13C254.22 178.77 257.71 188.55 260.59 199.46C262.84 212.97 265.37 226.9 274.21 236.58C274.94 237.67 275.7 238.75 276.52 239.81C276.52 239.81 283.1 246.39 289.68 246.39C278.81 258.46 277.27 269.65 279.33 280.61C268.07 291.67 249.72 295.61 233.77 305.58C223.92 308.87 214.05 328.6 220.62 341.75C237.06 364.77 253.51 361.49 273.24 371.35C274.32 372 275.33 372.72 276.28 373.48C276.86 375.9 277.98 378.46 279.81 381.22C282.84 387.27 285.91 398.83 291.49 405.78C292.48 410.02 293.47 414.32 294.64 418.55C292.71 424.69 285.19 428.05 276.71 430.31C278.74 425.51 281.98 421.17 286.28 417.78L267.66 371.85C261.29 373.13 254.97 373.07 249.01 371.73L243.97 383.65L229.72 377.63L234.73 365.82C227.33 361.13 221.34 354.12 217.76 345.26C208.76 323.06 219.11 297.11 242.08 287.8C250.7 284.3 259.74 283.96 267.95 285.7L282.05 252.38C271.08 245.99 262.15 236.25 256.92 223.34C251.69 210.43 251.31 197.22 254.75 185L222.48 171.35C217.76 178.24 211.07 184.36 202.44 187.85C182.33 196.01 160.01 188.36 148.84 171.14L103.98 190.19C106.08 203.58 98.38 217.54 84.72 223.07C68.96 229.47 50.75 221.81 44.33 205.99C37.92 190.15 45.59 172.01 61.43 165.6ZM58.56 200.12C61.75 208.01 70.83 211.84 78.7 208.64C86.58 205.45 90.41 196.38 87.23 188.51C84.03 180.63 74.96 176.8 67.09 179.99C59.2 183.19 55.36 192.25 58.56 200.12Z" />
								<path id="Layer" class="shp1" d="M142.08 49.35C143.6 49.23 145.13 48.95 146.61 48.35C154.48 45.16 158.31 36.09 155.13 28.22C151.93 20.33 142.85 16.49 134.99 19.68C134.26 19.98 133.61 20.37 132.96 20.75C131.62 15.89 130.35 11.02 129.15 6.18C144.83 0 162.86 7.63 169.24 23.37C174.77 37.02 169.81 51.52 159.04 60.09L175.63 103.05C160.75 90.43 150.16 71.05 142.08 49.35Z" />
								<path id="Layer" class="shp1" d="M238.17 397.83L232.14 412.07L217.9 406.04L223.94 391.8L238.17 397.83Z" />
								<path id="Layer" class="shp1" d="M108.68 106.36L122.92 112.38L117.58 125.02C112.65 123.5 107.74 121.88 102.87 120.13L108.68 106.36Z" />
							</g>
						</g>
					</g>
				</g>
			</g>
		</g>
	</g>
</svg>